<?xml version="1.0" encoding="utf-8"?>
<!-- Generator: Adobe Illustrator 22.1.0, SVG Export Plug-In . SVG Version: 6.00 Build 0)  -->
<svg version="1.1" id="Layer_1" xmlns="http://www.w3.org/2000/svg" xmlns:xlink="http://www.w3.org/1999/xlink" x="0px" y="0px"
	 viewBox="0 0 587.9 62.5" style="enable-background:new 0 0 587.9 62.5;" xml:space="preserve">
<style type="text/css">
	.st0{fill:#0F2B4C;}
</style>
<title>Alohilani_Logo_Modified_Color</title>
<path class="st0" d="M396.7,34c-3-5.6-5.1-9.4-7-11c-1.2-1.1-3.2-1.5-6.2-1.6v5c0,4.3,0.2,6.1,3.6,6.5V34h-11.3v-1.2
	c3.5-0.4,3.6-2.3,3.6-6.8V13.7c0-5.1-0.2-7.6-3.6-8.4V4.1h7.8c4.7,0,7.8,0.3,9.3,1.2c3.2,1.9,4.8,4.5,4.8,7.6c0,3.3-2.1,6.3-5.3,7.4
	c1.8,1.1,3.3,3.6,5.4,7c1.9,3.1,3,5.2,5.9,5.5V34H396.7z M386.1,19.2c4.8,0,7.4-2.1,7.4-5.5c0-4.1-2.6-6.9-7.6-6.9h-2.2
	c0,3.8-0.1,6.1-0.1,6.9v5.4C384.6,19.1,385.5,19.2,386.1,19.2z"/>
<path class="st0" d="M436.4,34h-21.2v-1.2c3.5-0.4,3.6-2.4,3.6-7V14.4c0-5.5,0-8.2-3.6-9.1V4.1h21.4l-0.3,6H435
	c-0.5-3.3-2.1-3.6-5.7-3.6c-0.9,0-2.9,0-6.2,0.1c-0.1,3.7-0.2,7.4-0.2,11.1h1.6c0.9,0,1.7,0,2.2,0c4.7,0,6.6-0.3,7.1-3.4h1v8.8h-1
	c-0.9-3-2.5-3.1-6.6-3.1c-1.6,0-3,0-4.3,0.1v5.1c0,4.9,0.5,6.7,6,6.7c4.4,0,6.6-1.1,7.8-4.4l1.2,0.2L436.4,34z"/>
<path class="st0" d="M459.7,5.7c-3.3,0-5.3,1.9-5.3,4.8c0,3.4,2.5,4.6,6.9,6.6c5.1,2.3,7.7,4.2,7.7,9c0.2,4.5-3.4,8.3-7.9,8.4
	c-0.2,0-0.3,0-0.5,0c-3.2,0-5.2-1.2-6.6-1.2c-0.5,0.1-1,0.4-1.2,0.9h-0.9l-0.5-7.4h1c1.9,3.6,4.4,5.4,7.8,5.4c3.2,0,5.5-2.2,5.5-5.1
	s-2.2-4.2-6.4-6.1c-5.2-2.5-8.2-4.3-8.2-9.1c0-5,3.7-8.3,9.2-8.3c2.6,0,4.2,0.8,5,0.8c0.5,0,0.9-0.3,1.1-0.7h1.1l-0.2,6.9h-1.1
	C465.1,7.4,462.9,5.7,459.7,5.7z"/>
<path class="st0" d="M508,30c-2.9,2.9-6.9,4.6-11,4.6c-8.8,0-16-7.2-16-16c0-4.1,1.6-7.9,4.6-10.7c3-2.9,7-4.4,11.2-4.4
	C501,3.4,505.1,5,508.1,8c2.9,2.9,4.6,6.9,4.5,11C512.6,23.1,511,27.1,508,30z M508.2,21.2c-0.1-3.8-1.4-7.5-3.8-10.4
	c-2.1-2.9-5.4-4.6-9-4.6c-5.8,0-9.9,4.1-9.9,10.2c0,3.9,1.4,7.7,3.9,10.6c2.2,2.8,5.5,4.4,9,4.5C504.3,31.5,508.2,27.6,508.2,21.2
	L508.2,21.2z"/>
<path class="st0" d="M544.8,34c-3-5.6-5.2-9.4-7-11c-1.2-1.1-3.2-1.5-6.2-1.6v5c0,4.3,0.2,6.1,3.6,6.5V34h-11.3v-1.2
	c3.5-0.4,3.6-2.3,3.6-6.8V13.7c0-5.1-0.2-7.6-3.6-8.4V4.1h7.8c4.7,0,7.8,0.3,9.3,1.2c3.2,1.9,4.8,4.5,4.8,7.6c0,3.3-2.1,6.3-5.3,7.4
	c1.8,1.1,3.3,3.6,5.4,7c1.9,3.1,3,5.2,5.9,5.5V34H544.8z M534.2,19.2c4.8,0,7.3-2.1,7.3-5.5c0-4.1-2.6-6.9-7.6-6.9h-2.2
	c0,3.8-0.1,6.1-0.1,6.9v5.4C532.7,19.1,533.6,19.2,534.2,19.2z"/>
<path class="st0" d="M587.4,10.3h-1.1c-0.3-2.9-1.6-3.4-4.9-3.4c-1.7,0-3.5,0-5.4,0.1v18.8c0,4.7,0.1,6.7,3.6,7V34h-11.3v-1.2
	c3.4-0.4,3.6-2.2,3.6-6.5V7h-3.2c-4.3,0-6.4,0.5-7.3,3.3h-1.1l0.4-7.1h0.9c0.1,0.2,0.3,0.4,0.5,0.6c0.4,0.5,1.7,0.5,4,0.5h14.4
	c3.3,0,5.4,0,6.5-1.1h0.9L587.4,10.3z"/>
<path class="st0" d="M3.1,5v0.1c1.4,0.4,2.1,1.2,2.1,2.5c0,1.4-1.2,2.6-2.6,2.6c0,0,0,0,0,0C1.1,10.2,0,8.9,0,6.9C0,4.3,1.6,2,4.8,0
	l0.6,0.9C4,1.8,3.1,3.3,3.1,5z"/>
<path class="st0" d="M32.6,34v-1.2c1.7-0.1,2.5-0.7,2.5-1.6c0-1.1-1.3-3.7-3-8.1H22.1c-1.2,3.6-2.1,5.8-2.1,7c0,1.5,0.9,2.4,2.9,2.7
	V34H12.6v-1.2c3.4-0.4,4.6-2.5,6.2-7.4l4.7-13.7c0.7-2.2,1.5-4.8,2.4-7.8h3.4c0.6,2.1,1.4,4.3,2.2,6.4L38,26.6
	c1.3,3.4,2,5.6,5.7,6.2V34H32.6z M26.6,9.4l-3.5,10.8h8L26.6,9.4z"/>
<path class="st0" d="M77,34H55.8v-1.2c3.5-0.4,3.6-2.3,3.6-6.8v-14c0-4.5-0.2-6.4-3.6-6.8V4.1h11.3v1.2c-3.4,0.4-3.6,2.2-3.6,6.5
	v13.4c0,4.9,0.5,6.7,6,6.7c4.3,0,6.7-1.2,7.8-4.4l1.2,0.2L77,34z"/>
<path class="st0" d="M117.1,30c-2.9,2.9-6.9,4.6-11,4.6c-8.8,0-16-7.2-16-16c0-4,1.6-7.9,4.5-10.6c3-2.9,7-4.4,11.2-4.4
	c4.2-0.1,8.3,1.5,11.3,4.5c2.9,2.9,4.6,6.9,4.5,11C121.7,23.1,120,27.1,117.1,30z M117.3,21.2c-0.1-3.8-1.4-7.5-3.8-10.4
	c-2.1-2.9-5.4-4.6-9-4.6c-5.8,0-9.9,4.1-9.9,10.2c0,3.9,1.3,7.7,3.8,10.6c2.2,2.8,5.5,4.4,9.1,4.5C113.4,31.5,117.3,27.6,117.3,21.2
	L117.3,21.2z"/>
<path class="st0" d="M155.7,34v-1.2c3.4-0.4,3.6-2.3,3.6-6.5v-6.5h-17.7v5.6c0,4.8,0,7,3.6,7.3V34h-11.3v-1.2
	c3.5-0.4,3.6-2.3,3.6-6.5V12.3c0-4.6-0.1-6.6-3.6-7V4.1h11.3v1.2c-3.6,0.4-3.6,2.6-3.6,7.3v5h17.7V12c0-4.4-0.1-6.3-3.6-6.7V4.1
	h11.2v1.2c-3.4,0.4-3.6,2.3-3.6,6.7v13.5c0,4.9,0,7,3.6,7.3V34H155.7z"/>
<path class="st0" d="M180.9,34v-1.2c3.5-0.4,3.6-2.4,3.6-6.7V12.3c0-4.6-0.1-6.6-3.6-7V4.1h11.3v1.2c-3.5,0.4-3.6,2.4-3.6,7v13.5
	c0,4.6,0.1,6.6,3.6,7V34H180.9z"/>
<path class="st0" d="M229.1,34h-21.2v-1.2c3.4-0.4,3.6-2.3,3.6-6.8v-14c0-4.5-0.2-6.4-3.6-6.8V4.1h11.3v1.2
	c-3.4,0.4-3.6,2.2-3.6,6.5v13.4c0,4.9,0.5,6.7,6,6.7c4.4,0,6.7-1.2,7.8-4.4l1.2,0.2L229.1,34z"/>
<path class="st0" d="M261.2,34v-1.2c1.7-0.1,2.5-0.7,2.5-1.6c0-1.1-1.3-3.7-3-8.1h-10.1c-1.2,3.6-2.1,5.9-2.1,7
	c0,1.5,0.9,2.4,2.9,2.7V34h-10.3v-1.2c3.4-0.4,4.6-2.5,6.2-7.4l4.6-13.7c0.7-2.2,1.5-4.8,2.4-7.8h3.4c0.6,2.1,1.4,4.3,2.2,6.4
	l6.5,16.4c1.3,3.4,2,5.7,5.6,6.2V34H261.2z M255.2,9.4l-3.5,10.8h8L255.2,9.4z"/>
<path class="st0" d="M313.9,11.7L313.8,26c0,3.2,0,6,0.2,8.3h-1.2c-1.1-1.4-2.4-3-3.9-4.5L291,10.5v15.8c0,4.3,0,6,4.1,6.5V34h-10.6
	v-1.2c4.1-0.5,4.2-2,4.2-6.6V8.3c-1.4-1.7-3.5-2.7-5.6-3V4.1h8.4c6.2,7.7,12.9,15,19.9,22V11.8c0-4.3,0-5.9-4.1-6.5V4.1H318v1.2
	C314,5.9,313.9,7.5,313.9,11.7z"/>
<path class="st0" d="M331,34v-1.2c3.5-0.4,3.6-2.4,3.6-6.7V12.3c0-4.6-0.1-6.6-3.6-7V4.1h11.3v1.2c-3.5,0.4-3.6,2.4-3.6,7v13.5
	c0,4.6,0.1,6.6,3.6,7V34H331z"/>
<path class="st0" d="M187.3,51.5h1.3l3.1,9l3-9.1h1l3,9.1l3.1-9h1.3l-3.9,10.9h-1l-3-8.8l-3,8.8h-1L187.3,51.5z"/>
<path class="st0" d="M209.5,51.4h1.1l4.9,10.9h-1.3l-1.3-2.9h-5.9l-1.3,2.9h-1.3L209.5,51.4z M212.5,58.4l-2.5-5.5l-2.5,5.5H212.5z"
	/>
<path class="st0" d="M221,51.5h1.2v10.8H221V51.5z"/>
<path class="st0" d="M229.2,51.5h1.2V58l6.2-6.5h1.6l-4.6,4.7l4.9,6.1h-1.5l-4.2-5.3l-2.3,2.3v2.9h-1.2L229.2,51.5z"/>
<path class="st0" d="M244.4,51.5h1.2v10.8h-1.2V51.5z"/>
<path class="st0" d="M252.6,51.5h1.2V58l6.2-6.5h1.6l-4.7,4.7l4.9,6.1h-1.5l-4.2-5.3l-2.3,2.3v2.9h-1.2L252.6,51.5z"/>
<path class="st0" d="M267.8,51.5h1.2v10.8h-1.2L267.8,51.5z"/>
<path class="st0" d="M284.6,51.5h4.6c1,0,2.1,0.3,2.8,1c0.5,0.5,0.7,1.1,0.7,1.7l0,0c0,1.1-0.7,2.1-1.8,2.5c1.3,0.4,2.3,1.1,2.3,2.6
	l0,0c0,1.9-1.6,3-3.9,3h-4.8V51.5z M289,56.3c1.5,0,2.5-0.7,2.5-1.9l0,0c0-1.1-0.9-1.8-2.4-1.8h-3.3v3.7L289,56.3z M289.4,61.2
	c1.6,0,2.7-0.7,2.7-1.9l0,0c0-1.2-1-1.9-2.9-1.9h-3.4v3.8L289.4,61.2z"/>
<path class="st0" d="M298.9,51.5h7.8v1.1h-6.6v3.7h5.9v1.1h-5.9v3.8h6.7v1.1h-7.9L298.9,51.5z"/>
<path class="st0" d="M316.4,51.4h1.1l5,10.9h-1.3l-1.3-2.9H314l-1.3,2.9h-1.3L316.4,51.4z M319.4,58.4l-2.4-5.6l-2.5,5.5L319.4,58.4
	z"/>
<path class="st0" d="M326.6,56.9L326.6,56.9c-0.1-3,2.3-5.5,5.3-5.6c0.1,0,0.1,0,0.2,0c1.6-0.1,3.1,0.5,4.2,1.7l-0.8,0.9
	c-0.9-0.9-2.1-1.5-3.4-1.5c-2.3,0-4.2,1.9-4.2,4.3c0,0.1,0,0.1,0,0.2l0,0c-0.1,2.4,1.7,4.4,4.1,4.5c0,0,0.1,0,0.1,0
	c1.3,0,2.6-0.6,3.5-1.6l0.8,0.8c-1.1,1.2-2.7,1.9-4.3,1.9c-3,0-5.4-2.4-5.4-5.4C326.6,57,326.6,57,326.6,56.9z"/>
<path class="st0" d="M341.6,51.5h1.2v4.8h6.3v-4.8h1.2v10.8h-1.2v-4.9h-6.3v4.9h-1.2V51.5z"/>
<path class="st0" d="M242.8,47.1h4.4v0.7h-4.4V47.1z"/>
<path class="st0" d="M266.2,47.1h4.4v0.7h-4.4V47.1z"/>
</svg>
